# xmcd
#
# Track frame offsets:
#	150
#	14750
#	31685
#	51283
#	66218
#	87056
#	105428
#	124365
#	139770
#	159152
#
# Disc length: 2391 seconds
#
# Revision: 0
# Processed by: cddbd v1.5.2PL0 Copyright (c) Steve Scherf et al.
# Submitted via: dBpowerAMP V4.0
#
DISCID=7c09550a
DTITLE=Various Artist - Let It Roll
DYEAR=2008
DGENRE=Country
TTITLE0=Sway - Cowgirl Scene
TTITLE1=Let It Roll
TTITLE2=If I Knew
TTITLE3=In the Hands of Love
TTITLE4=When Love Finds Its Way
TTITLE5=I'm Over You
TTITLE6=This World
TTITLE7=More Than Enough
TTITLE8=Left Unsaid
TTITLE9=Love Takes Time
EXTD=
EXTT0=
EXTT1=
EXTT2=
EXTT3=
EXTT4=
EXTT5=
EXTT6=
EXTT7=
EXTT8=
EXTT9=
PLAYORDER=
